<svg fill="#D1D5DB" id="Layer_1" data-name="Layer 1" xmlns="http://www.w3.org/2000/svg" viewBox="0 0 577.51 562.48"><polygon points="147.12 110.49 431.03 110.49 431.03 151.58 309.28 151.58 309.28 216.5 269.1 245.28 269.1 151.65 147.12 151.65 147.12 110.49"/><path d="M251.64,185v38.62s-44.3,16.59-40.66,68.77c0,0-18.4,10.31-29.52,36.2,0,0-25.08-28.72-2.43-87.57C179,241,201.88,187.85,251.64,185Z"/><path d="M310,394.34s-42,9.46-42-2.32V341.56l42-29.13Z"/><path d="M415.05,286.64s-8.09-24.57-33.88-29.22c0,0-18.3-1.62-29.12,4.05l-107.9,77s-23.46,20.23-11.73,46.92c0,0,18.81,36.81,75.44,27.1,0,0,65-4.24,69.17-79.68a123.17,123.17,0,0,0,38,6.07s3.1,65.52-61.08,101.39c0,0-75,37.75-134.29-9.17,0,0-41.8-23.73-27.51-84.13,0,0,5.4-24.54,32.36-45.31l91.69-67.14s43.15-29.13,81.71-15.64,47.46,44.22,47.46,44.22Z"/><rect x="268.35" y="470.93" width="41.66" height="91.55"/><path d="M342.65,562.48s243.77-31.28,234.6-305.67c0,0-15.37-167.86-174.74-234.2,0,0-156.94-72.81-297.71,42.88,0,0-148,111.64-92.22,298.51,0,0,38.83,162.34,221.66,198.48V516.7S100,509.08,50.33,352.68c0,0-50.33-132.68,67.42-246.47,0,0,65.26-65.26,171-67.42,0,0,107.87-8.63,188.77,87.37,0,0,94.65,92.5,46.11,241.35,0,0-32.36,116.76-180.94,156.67Z"/></svg>